<svg xmlns="http://www.w3.org/2000/svg" xmlns:xlink="http://www.w3.org/1999/xlink" width="500" height="750" viewBox="0 0 500 750">
  <defs>
    <clipPath id="clip-path">
      <rect id="Rectangle_2" data-name="Rectangle 2" width="750" height="500" fill="none"/>
    </clipPath>
    <filter id="Path_59" x="391.981" y="100.105" width="175.131" height="133.102" filterUnits="userSpaceOnUse">
      <feOffset input="SourceAlpha"/>
      <feGaussianBlur stdDeviation="3.805" result="blur"/>
      <feFlood flood-color="#282828" flood-opacity="0.302"/>
      <feComposite operator="in" in2="blur"/>
      <feComposite in="SourceGraphic"/>
    </filter>
    <filter id="Path_60" x="184.175" y="-22.946" width="224.419" height="170.562" filterUnits="userSpaceOnUse">
      <feOffset input="SourceAlpha"/>
      <feGaussianBlur stdDeviation="4.876" result="blur-2"/>
      <feFlood flood-color="#282828" flood-opacity="0.302"/>
      <feComposite operator="in" in2="blur-2"/>
      <feComposite in="SourceGraphic"/>
    </filter>
    <filter id="Ellipse_4" x="-78.978" y="609.27" width="300.504" height="300.504" filterUnits="userSpaceOnUse">
      <feOffset input="SourceAlpha"/>
      <feGaussianBlur stdDeviation="5" result="blur-3"/>
      <feFlood flood-color="#282828" flood-opacity="0.302"/>
      <feComposite operator="in" in2="blur-3"/>
      <feComposite in="SourceGraphic"/>
    </filter>
    <clipPath id="clip-bgsignin">
      <rect width="500" height="750"/>
    </clipPath>
  </defs>
  <g id="bgsignin" clip-path="url(#clip-bgsignin)">
    <rect width="500" height="750" fill="#fff"/>
    <g id="BACKGROUND">
      <path id="Path_183" data-name="Path 183" d="M0,0H750V500H0Z" fill="none"/>
    </g>
    <g id="OBJECTS">
      <g id="Group_134" data-name="Group 134">
        <g id="Group_133" data-name="Group 133" transform="translate(503) rotate(90)" clip-path="url(#clip-path)">
          <circle id="Ellipse_1" data-name="Ellipse 1" cx="95.638" cy="95.638" r="95.638" transform="translate(-85.441 66.105) rotate(-45)" fill="#005cac"/>
          <circle id="Ellipse_2" data-name="Ellipse 2" cx="95.638" cy="95.638" r="95.638" transform="translate(55.003 562.755) rotate(-45)" fill="#005cac"/>
          <path id="Path_184" data-name="Path 184" d="M95.638,0A95.638,95.638,0,1,1,0,95.638,95.638,95.638,0,0,1,95.638,0Z" transform="translate(487.851 -68.245) rotate(-45)" fill="#005cac"/>
          <g id="Group_7" data-name="Group 7">
            <g id="Group_3" data-name="Group 3">
              <g id="Group_1" data-name="Group 1">
                <path id="Path_1" data-name="Path 1" d="M43.9,105.651l7.347,4.242v-8.483Z"/>
                <path id="Path_2" data-name="Path 2" d="M43.9,97.168l7.347,4.242V92.926Z"/>
                <path id="Path_3" data-name="Path 3" d="M43.9,88.685l7.347,4.242V84.443Z"/>
                <path id="Path_4" data-name="Path 4" d="M43.9,80.2l7.347,4.242V75.96Z"/>
              </g>
              <g id="Group_2" data-name="Group 2">
                <path id="Path_5" data-name="Path 5" d="M51.246,101.409l7.347,4.242V97.168Z"/>
                <path id="Path_6" data-name="Path 6" d="M51.246,92.926l7.347,4.242V88.685Z"/>
                <path id="Path_7" data-name="Path 7" d="M51.246,84.443l7.347,4.242V80.2Z"/>
              </g>
            </g>
            <g id="Group_6" data-name="Group 6">
              <g id="Group_4" data-name="Group 4">
                <path id="Path_8" data-name="Path 8" d="M58.593,105.651l7.347,4.242v-8.483Z"/>
                <path id="Path_9" data-name="Path 9" d="M58.593,97.168l7.347,4.242V92.926Z"/>
                <path id="Path_10" data-name="Path 10" d="M58.593,88.685l7.347,4.242V84.443Z"/>
                <path id="Path_11" data-name="Path 11" d="M58.593,80.2l7.347,4.242V75.96Z"/>
              </g>
              <g id="Group_5" data-name="Group 5">
                <path id="Path_12" data-name="Path 12" d="M65.939,101.409l7.347,4.242V97.168Z"/>
                <path id="Path_13" data-name="Path 13" d="M65.939,92.926l7.347,4.242V88.685Z"/>
                <path id="Path_14" data-name="Path 14" d="M65.939,84.443l7.347,4.242V80.2Z"/>
              </g>
            </g>
          </g>
          <g id="Group_14" data-name="Group 14">
            <g id="Group_10" data-name="Group 10">
              <g id="Group_8" data-name="Group 8">
                <path id="Path_15" data-name="Path 15" d="M475.221,63.235l7.347,4.242V58.994Z" fill="#005cac"/>
                <path id="Path_16" data-name="Path 16" d="M475.221,54.752l7.347,4.242V50.511Z" fill="#005cac"/>
                <path id="Path_17" data-name="Path 17" d="M475.221,46.269l7.347,4.242V42.028Z" fill="#005cac"/>
                <path id="Path_18" data-name="Path 18" d="M475.221,37.786l7.347,4.242V33.544Z" fill="#005cac"/>
              </g>
              <g id="Group_9" data-name="Group 9">
                <path id="Path_19" data-name="Path 19" d="M482.567,58.994l7.347,4.242V54.752Z" fill="#005cac"/>
                <path id="Path_20" data-name="Path 20" d="M482.567,50.511l7.347,4.242V46.269Z" fill="#005cac"/>
                <path id="Path_21" data-name="Path 21" d="M482.567,42.028l7.347,4.242V37.786Z" fill="#005cac"/>
              </g>
            </g>
            <g id="Group_13" data-name="Group 13">
              <g id="Group_11" data-name="Group 11">
                <path id="Path_22" data-name="Path 22" d="M489.914,63.235l7.347,4.242V58.994Z" fill="#005cac"/>
                <path id="Path_23" data-name="Path 23" d="M489.914,54.752l7.347,4.242V50.511Z" fill="#005cac"/>
                <path id="Path_24" data-name="Path 24" d="M489.914,46.269l7.347,4.242V42.028Z" fill="#005cac"/>
                <path id="Path_25" data-name="Path 25" d="M489.914,37.786l7.347,4.242V33.544Z" fill="#005cac"/>
              </g>
              <g id="Group_12" data-name="Group 12">
                <path id="Path_26" data-name="Path 26" d="M497.261,58.994l7.347,4.242V54.752Z" fill="#005cac"/>
                <path id="Path_27" data-name="Path 27" d="M497.261,50.511l7.347,4.242V46.269Z" fill="#005cac"/>
                <path id="Path_28" data-name="Path 28" d="M497.261,42.028l7.347,4.242V37.786Z" fill="#005cac"/>
              </g>
            </g>
          </g>
          <g id="Group_21" data-name="Group 21">
            <g id="Group_17" data-name="Group 17">
              <g id="Group_15" data-name="Group 15">
                <path id="Path_29" data-name="Path 29" d="M67.707,391.33l-7.347-4.242v8.483Z" fill="#005cac"/>
                <path id="Path_30" data-name="Path 30" d="M67.707,399.813l-7.347-4.241v8.483Z" fill="#005cac"/>
                <path id="Path_31" data-name="Path 31" d="M67.707,408.3l-7.347-4.242v8.483Z" fill="#005cac"/>
                <path id="Path_32" data-name="Path 32" d="M67.707,416.78l-7.347-4.242v8.483Z" fill="#005cac"/>
              </g>
              <g id="Group_16" data-name="Group 16">
                <path id="Path_33" data-name="Path 33" d="M60.36,395.572l-7.347-4.242v8.483Z" fill="#005cac"/>
                <path id="Path_34" data-name="Path 34" d="M60.36,404.055l-7.347-4.242V408.3Z" fill="#005cac"/>
                <path id="Path_35" data-name="Path 35" d="M60.36,412.538,53.013,408.3v8.483Z" fill="#005cac"/>
              </g>
            </g>
            <g id="Group_20" data-name="Group 20">
              <g id="Group_18" data-name="Group 18">
                <path id="Path_36" data-name="Path 36" d="M53.013,391.33l-7.347-4.242v8.483Z" fill="#005cac"/>
                <path id="Path_37" data-name="Path 37" d="M53.013,399.813l-7.347-4.241v8.483Z" fill="#005cac"/>
                <path id="Path_38" data-name="Path 38" d="M53.013,408.3l-7.347-4.242v8.483Z" fill="#005cac"/>
                <path id="Path_39" data-name="Path 39" d="M53.013,416.78l-7.347-4.242v8.483Z" fill="#005cac"/>
              </g>
              <g id="Group_19" data-name="Group 19">
                <path id="Path_40" data-name="Path 40" d="M45.667,395.572,38.32,391.33v8.483Z" fill="#005cac"/>
                <path id="Path_41" data-name="Path 41" d="M45.667,404.055l-7.347-4.242V408.3Z" fill="#005cac"/>
                <path id="Path_42" data-name="Path 42" d="M45.667,412.538,38.32,408.3v8.483Z" fill="#005cac"/>
              </g>
            </g>
          </g>
          <g id="Group_28" data-name="Group 28">
            <g id="Group_24" data-name="Group 24">
              <g id="Group_22" data-name="Group 22">
                <path id="Path_43" data-name="Path 43" d="M410.063,510.277l7.347,4.242v-8.483Z"/>
                <path id="Path_44" data-name="Path 44" d="M410.063,501.794l7.347,4.241v-8.483Z"/>
                <path id="Path_45" data-name="Path 45" d="M410.063,493.31l7.347,4.242v-8.483Z"/>
                <path id="Path_46" data-name="Path 46" d="M410.063,484.827l7.347,4.242v-8.483Z"/>
              </g>
              <g id="Group_23" data-name="Group 23">
                <path id="Path_47" data-name="Path 47" d="M417.409,506.035l7.347,4.242v-8.483Z"/>
                <path id="Path_48" data-name="Path 48" d="M417.409,497.552l7.347,4.242V493.31Z"/>
                <path id="Path_49" data-name="Path 49" d="M417.409,489.069l7.347,4.241v-8.483Z"/>
              </g>
            </g>
            <g id="Group_27" data-name="Group 27">
              <g id="Group_25" data-name="Group 25">
                <path id="Path_50" data-name="Path 50" d="M424.756,510.277l7.347,4.242v-8.483Z"/>
                <path id="Path_51" data-name="Path 51" d="M424.756,501.794l7.347,4.241v-8.483Z"/>
                <path id="Path_52" data-name="Path 52" d="M424.756,493.31l7.347,4.242v-8.483Z"/>
                <path id="Path_53" data-name="Path 53" d="M424.756,484.827l7.347,4.242v-8.483Z"/>
              </g>
              <g id="Group_26" data-name="Group 26">
                <path id="Path_54" data-name="Path 54" d="M432.1,506.035l7.347,4.242v-8.483Z"/>
                <path id="Path_55" data-name="Path 55" d="M432.1,497.552l7.347,4.242V493.31Z"/>
                <path id="Path_56" data-name="Path 56" d="M432.1,489.069l7.347,4.241v-8.483Z"/>
              </g>
            </g>
          </g>
          <path id="Path_57" data-name="Path 57" d="M535.47,450.118l144.9,100.062V350.056Z" fill="#005cac"/>
          <path id="Path_58" data-name="Path 58" d="M680.368,303.545l110.616,76.388V227.157Z" fill="#005cac"/>
          <g transform="matrix(0, -1, 1, 0, 0, 503)" filter="url(#Path_59)">
            <path id="Path_59-2" data-name="Path 59" d="M221.792,23.453,111.521-52.7V99.6Z" transform="translate(503) rotate(90)" fill="#f2f2f2"/>
          </g>
          <g transform="matrix(0, -1, 1, 0, 0, 503)" filter="url(#Path_60)">
            <path id="Path_60-2" data-name="Path 60" d="M132.988,206.616-8.318,109.035V304.2Z" transform="translate(503) rotate(90)" fill="#f2f2f2"/>
          </g>
          <g transform="matrix(0, -1, 1, 0, 0, 503)" filter="url(#Ellipse_4)">
            <circle id="Ellipse_4-2" data-name="Ellipse 4" cx="95.638" cy="95.638" r="95.638" transform="translate(71.27 624.27) rotate(45)" fill="#f2f2f2"/>
          </g>
          <g id="Group_36" data-name="Group 36">
            <g id="Group_32" data-name="Group 32">
              <g id="Group_30" data-name="Group 30">
                <path id="Path_61" data-name="Path 61" d="M714.584,175.813l-7.347-4.242v8.483Z"/>
                <path id="Path_62" data-name="Path 62" d="M714.584,184.3l-7.347-4.242v8.483Z"/>
                <path id="Path_63" data-name="Path 63" d="M714.584,192.78l-7.347-4.242v8.483Z"/>
                <path id="Path_64" data-name="Path 64" d="M714.584,201.263l-7.347-4.242V205.5Z"/>
              </g>
              <g id="Group_31" data-name="Group 31">
                <path id="Path_65" data-name="Path 65" d="M707.237,180.055l-7.347-4.242V184.3Z"/>
                <path id="Path_66" data-name="Path 66" d="M707.237,188.538l-7.347-4.242v8.483Z"/>
                <path id="Path_67" data-name="Path 67" d="M707.237,197.021l-7.347-4.242v8.483Z"/>
              </g>
            </g>
            <g id="Group_35" data-name="Group 35">
              <g id="Group_33" data-name="Group 33">
                <path id="Path_68" data-name="Path 68" d="M699.891,175.813l-7.347-4.242v8.483Z"/>
                <path id="Path_69" data-name="Path 69" d="M699.891,184.3l-7.347-4.242v8.483Z"/>
                <path id="Path_70" data-name="Path 70" d="M699.891,192.78l-7.347-4.242v8.483Z"/>
                <path id="Path_71" data-name="Path 71" d="M699.891,201.263l-7.347-4.242V205.5Z"/>
              </g>
              <g id="Group_34" data-name="Group 34">
                <path id="Path_72" data-name="Path 72" d="M692.544,180.055l-7.347-4.242V184.3Z"/>
                <path id="Path_73" data-name="Path 73" d="M692.544,188.538,685.2,184.3v8.483Z"/>
                <path id="Path_74" data-name="Path 74" d="M692.544,197.021,685.2,192.78v8.483Z"/>
              </g>
            </g>
          </g>
          <g id="Group_47" data-name="Group 47" opacity="0.51">
            <g id="Group_46" data-name="Group 46">
              <g id="Group_39" data-name="Group 39">
                <g id="Group_37" data-name="Group 37">
                  <path id="Path_75" data-name="Path 75" d="M40.771,224.19a.993.993,0,1,1-.994-.993A.993.993,0,0,1,40.771,224.19Z"/>
                  <circle id="Ellipse_5" data-name="Ellipse 5" cx="0.993" cy="0.993" r="0.993" transform="translate(53.741 223.197)"/>
                  <circle id="Ellipse_6" data-name="Ellipse 6" cx="0.993" cy="0.993" r="0.993" transform="translate(68.697 223.197)"/>
                  <circle id="Ellipse_7" data-name="Ellipse 7" cx="0.993" cy="0.993" r="0.993" transform="translate(83.653 223.197)"/>
                  <circle id="Ellipse_8" data-name="Ellipse 8" cx="0.993" cy="0.993" r="0.993" transform="translate(98.609 223.197)"/>
                </g>
                <g id="Group_38" data-name="Group 38">
                  <path id="Path_76" data-name="Path 76" d="M48.249,235.583a.993.993,0,1,1-.993-.994A.994.994,0,0,1,48.249,235.583Z"/>
                  <path id="Path_77" data-name="Path 77" d="M63.205,235.583a.993.993,0,1,1-.993-.994A.994.994,0,0,1,63.205,235.583Z"/>
                  <path id="Path_78" data-name="Path 78" d="M78.161,235.583a.993.993,0,1,1-.993-.994A.993.993,0,0,1,78.161,235.583Z"/>
                  <path id="Path_79" data-name="Path 79" d="M93.117,235.583a.993.993,0,1,1-.993-.994A.993.993,0,0,1,93.117,235.583Z"/>
                </g>
              </g>
              <g id="Group_42" data-name="Group 42">
                <g id="Group_40" data-name="Group 40">
                  <path id="Path_80" data-name="Path 80" d="M40.771,247.033a.993.993,0,1,1-.994-.993A.994.994,0,0,1,40.771,247.033Z"/>
                  <circle id="Ellipse_9" data-name="Ellipse 9" cx="0.993" cy="0.993" r="0.993" transform="translate(53.741 246.04)"/>
                  <circle id="Ellipse_10" data-name="Ellipse 10" cx="0.993" cy="0.993" r="0.993" transform="translate(68.697 246.04)"/>
                  <circle id="Ellipse_11" data-name="Ellipse 11" cx="0.993" cy="0.993" r="0.993" transform="translate(83.653 246.04)"/>
                  <circle id="Ellipse_12" data-name="Ellipse 12" cx="0.993" cy="0.993" r="0.993" transform="translate(98.609 246.04)"/>
                </g>
                <g id="Group_41" data-name="Group 41">
                  <path id="Path_81" data-name="Path 81" d="M48.249,258.426a.993.993,0,1,1-.993-.993A.994.994,0,0,1,48.249,258.426Z"/>
                  <path id="Path_82" data-name="Path 82" d="M63.205,258.426a.993.993,0,1,1-.993-.993A.994.994,0,0,1,63.205,258.426Z"/>
                  <path id="Path_83" data-name="Path 83" d="M78.161,258.426a.993.993,0,1,1-.993-.993A.993.993,0,0,1,78.161,258.426Z"/>
                  <path id="Path_84" data-name="Path 84" d="M93.117,258.426a.993.993,0,1,1-.993-.993A.993.993,0,0,1,93.117,258.426Z"/>
                </g>
              </g>
              <g id="Group_45" data-name="Group 45">
                <g id="Group_43" data-name="Group 43">
                  <path id="Path_85" data-name="Path 85" d="M40.771,269.877a.993.993,0,1,1-.994-.994A.994.994,0,0,1,40.771,269.877Z"/>
                  <circle id="Ellipse_13" data-name="Ellipse 13" cx="0.993" cy="0.993" r="0.993" transform="translate(53.741 268.884)"/>
                  <circle id="Ellipse_14" data-name="Ellipse 14" cx="0.993" cy="0.993" r="0.993" transform="translate(68.697 268.884)"/>
                  <circle id="Ellipse_15" data-name="Ellipse 15" cx="0.993" cy="0.993" r="0.993" transform="translate(83.653 268.884)"/>
                  <circle id="Ellipse_16" data-name="Ellipse 16" cx="0.993" cy="0.993" r="0.993" transform="translate(98.609 268.884)"/>
                </g>
                <g id="Group_44" data-name="Group 44">
                  <circle id="Ellipse_17" data-name="Ellipse 17" cx="0.993" cy="0.993" r="0.993" transform="translate(46.262 280.276)"/>
                  <circle id="Ellipse_18" data-name="Ellipse 18" cx="0.993" cy="0.993" r="0.993" transform="translate(61.219 280.276)"/>
                  <circle id="Ellipse_19" data-name="Ellipse 19" cx="0.993" cy="0.993" r="0.993" transform="translate(76.175 280.276)"/>
                  <path id="Path_86" data-name="Path 86" d="M93.117,281.269a.993.993,0,1,1-.993-.993A.992.992,0,0,1,93.117,281.269Z"/>
                </g>
              </g>
            </g>
          </g>
          <g id="Group_58" data-name="Group 58" opacity="0.51">
            <g id="Group_57" data-name="Group 57">
              <g id="Group_50" data-name="Group 50">
                <g id="Group_48" data-name="Group 48">
                  <path id="Path_87" data-name="Path 87" d="M315.175-16.045a.994.994,0,0,1-.993.994.993.993,0,0,1-.993-.994.993.993,0,0,1,.993-.993A.994.994,0,0,1,315.175-16.045Z"/>
                  <path id="Path_88" data-name="Path 88" d="M330.131-16.045a.993.993,0,0,1-.993.994.994.994,0,0,1-.993-.994.994.994,0,0,1,.993-.993A.993.993,0,0,1,330.131-16.045Z"/>
                  <path id="Path_89" data-name="Path 89" d="M345.087-16.045a.993.993,0,0,1-.993.994.994.994,0,0,1-.993-.994.994.994,0,0,1,.993-.993A.993.993,0,0,1,345.087-16.045Z"/>
                  <path id="Path_90" data-name="Path 90" d="M360.044-16.045a.994.994,0,0,1-.993.994.994.994,0,0,1-.994-.994.994.994,0,0,1,.994-.993A.994.994,0,0,1,360.044-16.045Z"/>
                  <path id="Path_91" data-name="Path 91" d="M375-16.045a.994.994,0,0,1-.993.994.993.993,0,0,1-.993-.994.993.993,0,0,1,.993-.993A.994.994,0,0,1,375-16.045Z"/>
                </g>
                <g id="Group_49" data-name="Group 49">
                  <circle id="Ellipse_20" data-name="Ellipse 20" cx="0.993" cy="0.993" r="0.993" transform="translate(320.667 -5.645)"/>
                  <path id="Path_92" data-name="Path 92" d="M337.609-4.652a.993.993,0,0,1-.993.993.994.994,0,0,1-.993-.993.993.993,0,0,1,.993-.993A.992.992,0,0,1,337.609-4.652Z"/>
                  <circle id="Ellipse_21" data-name="Ellipse 21" cx="0.993" cy="0.993" r="0.993" transform="translate(350.579 -5.645)"/>
                  <circle id="Ellipse_22" data-name="Ellipse 22" cx="0.993" cy="0.993" r="0.993" transform="translate(365.535 -5.645)"/>
                </g>
              </g>
              <g id="Group_53" data-name="Group 53">
                <g id="Group_51" data-name="Group 51">
                  <path id="Path_93" data-name="Path 93" d="M315.175,6.8a.993.993,0,1,1-.993-.993A.994.994,0,0,1,315.175,6.8Z"/>
                  <path id="Path_94" data-name="Path 94" d="M330.131,6.8a.993.993,0,1,1-.993-.993A.993.993,0,0,1,330.131,6.8Z"/>
                  <path id="Path_95" data-name="Path 95" d="M345.087,6.8a.993.993,0,1,1-.993-.993A.993.993,0,0,1,345.087,6.8Z"/>
                  <path id="Path_96" data-name="Path 96" d="M360.044,6.8a.993.993,0,1,1-.993-.993A.994.994,0,0,1,360.044,6.8Z"/>
                  <path id="Path_97" data-name="Path 97" d="M375,6.8a.993.993,0,1,1-.993-.993A.994.994,0,0,1,375,6.8Z"/>
                </g>
                <g id="Group_52" data-name="Group 52">
                  <circle id="Ellipse_23" data-name="Ellipse 23" cx="0.993" cy="0.993" r="0.993" transform="translate(320.667 17.198)"/>
                  <path id="Path_98" data-name="Path 98" d="M337.609,18.191a.993.993,0,1,1-.993-.993A.992.992,0,0,1,337.609,18.191Z"/>
                  <circle id="Ellipse_24" data-name="Ellipse 24" cx="0.993" cy="0.993" r="0.993" transform="translate(350.579 17.198)"/>
                  <circle id="Ellipse_25" data-name="Ellipse 25" cx="0.993" cy="0.993" r="0.993" transform="translate(365.535 17.198)"/>
                </g>
              </g>
              <g id="Group_56" data-name="Group 56">
                <g id="Group_54" data-name="Group 54">
                  <path id="Path_99" data-name="Path 99" d="M315.175,29.642a.993.993,0,1,1-.993-.993A.993.993,0,0,1,315.175,29.642Z"/>
                  <path id="Path_100" data-name="Path 100" d="M330.131,29.642a.993.993,0,1,1-.993-.993A.992.992,0,0,1,330.131,29.642Z"/>
                  <path id="Path_101" data-name="Path 101" d="M345.087,29.642a.993.993,0,1,1-.993-.993A.992.992,0,0,1,345.087,29.642Z"/>
                  <path id="Path_102" data-name="Path 102" d="M360.044,29.642a.993.993,0,1,1-.993-.993A.993.993,0,0,1,360.044,29.642Z"/>
                  <path id="Path_103" data-name="Path 103" d="M375,29.642a.993.993,0,1,1-.993-.993A.993.993,0,0,1,375,29.642Z"/>
                </g>
                <g id="Group_55" data-name="Group 55">
                  <circle id="Ellipse_26" data-name="Ellipse 26" cx="0.993" cy="0.993" r="0.993" transform="translate(320.667 40.041)"/>
                  <path id="Path_104" data-name="Path 104" d="M337.609,41.034a.993.993,0,1,1-.993-.993A.993.993,0,0,1,337.609,41.034Z"/>
                  <circle id="Ellipse_27" data-name="Ellipse 27" cx="0.993" cy="0.993" r="0.993" transform="translate(350.579 40.041)"/>
                  <circle id="Ellipse_28" data-name="Ellipse 28" cx="0.993" cy="0.993" r="0.993" transform="translate(365.535 40.041)"/>
                </g>
              </g>
            </g>
          </g>
          <g id="Group_69" data-name="Group 69" opacity="0.51">
            <g id="Group_68" data-name="Group 68">
              <g id="Group_61" data-name="Group 61">
                <g id="Group_59" data-name="Group 59">
                  <path id="Path_105" data-name="Path 105" d="M730.6,85.437a.993.993,0,1,1-.993-.994A.994.994,0,0,1,730.6,85.437Z"/>
                  <path id="Path_106" data-name="Path 106" d="M745.559,85.437a.993.993,0,1,1-.993-.994A.994.994,0,0,1,745.559,85.437Z"/>
                  <path id="Path_107" data-name="Path 107" d="M760.515,85.437a.993.993,0,1,1-.993-.994A.993.993,0,0,1,760.515,85.437Z"/>
                  <path id="Path_108" data-name="Path 108" d="M775.471,85.437a.993.993,0,1,1-.993-.994A.993.993,0,0,1,775.471,85.437Z"/>
                  <path id="Path_109" data-name="Path 109" d="M790.428,85.437a.993.993,0,1,1-.994-.994A.994.994,0,0,1,790.428,85.437Z"/>
                </g>
                <g id="Group_60" data-name="Group 60">
                  <circle id="Ellipse_29" data-name="Ellipse 29" cx="0.993" cy="0.993" r="0.993" transform="translate(736.094 95.836)"/>
                  <circle id="Ellipse_30" data-name="Ellipse 30" cx="0.993" cy="0.993" r="0.993" transform="translate(751.051 95.836)"/>
                  <path id="Path_110" data-name="Path 110" d="M767.993,96.829a.993.993,0,1,1-.993-.993A.992.992,0,0,1,767.993,96.829Z"/>
                  <circle id="Ellipse_31" data-name="Ellipse 31" cx="0.993" cy="0.993" r="0.993" transform="translate(780.963 95.836)"/>
                </g>
              </g>
              <g id="Group_64" data-name="Group 64">
                <g id="Group_62" data-name="Group 62">
                  <path id="Path_111" data-name="Path 111" d="M730.6,108.28a.993.993,0,1,1-.993-.993A.994.994,0,0,1,730.6,108.28Z"/>
                  <path id="Path_112" data-name="Path 112" d="M745.559,108.28a.993.993,0,1,1-.993-.993A.994.994,0,0,1,745.559,108.28Z"/>
                  <path id="Path_113" data-name="Path 113" d="M760.515,108.28a.993.993,0,1,1-.993-.993A.993.993,0,0,1,760.515,108.28Z"/>
                  <path id="Path_114" data-name="Path 114" d="M775.471,108.28a.993.993,0,1,1-.993-.993A.993.993,0,0,1,775.471,108.28Z"/>
                  <path id="Path_115" data-name="Path 115" d="M790.428,108.28a.993.993,0,1,1-.994-.993A.994.994,0,0,1,790.428,108.28Z"/>
                </g>
                <g id="Group_63" data-name="Group 63">
                  <circle id="Ellipse_32" data-name="Ellipse 32" cx="0.993" cy="0.993" r="0.993" transform="translate(736.094 118.679)"/>
                  <circle id="Ellipse_33" data-name="Ellipse 33" cx="0.993" cy="0.993" r="0.993" transform="translate(751.051 118.679)"/>
                  <path id="Path_116" data-name="Path 116" d="M767.993,119.672a.993.993,0,1,1-.993-.993A.993.993,0,0,1,767.993,119.672Z"/>
                  <circle id="Ellipse_34" data-name="Ellipse 34" cx="0.993" cy="0.993" r="0.993" transform="translate(780.963 118.679)"/>
                </g>
              </g>
              <g id="Group_67" data-name="Group 67">
                <g id="Group_65" data-name="Group 65">
                  <path id="Path_117" data-name="Path 117" d="M730.6,131.123a.993.993,0,1,1-.993-.993A.993.993,0,0,1,730.6,131.123Z"/>
                  <path id="Path_118" data-name="Path 118" d="M745.559,131.123a.993.993,0,1,1-.993-.993A.993.993,0,0,1,745.559,131.123Z"/>
                  <path id="Path_119" data-name="Path 119" d="M760.515,131.123a.993.993,0,1,1-.993-.993A.992.992,0,0,1,760.515,131.123Z"/>
                  <path id="Path_120" data-name="Path 120" d="M775.471,131.123a.993.993,0,1,1-.993-.993A.992.992,0,0,1,775.471,131.123Z"/>
                  <path id="Path_121" data-name="Path 121" d="M790.428,131.123a.993.993,0,1,1-.994-.993A.993.993,0,0,1,790.428,131.123Z"/>
                </g>
                <g id="Group_66" data-name="Group 66">
                  <circle id="Ellipse_35" data-name="Ellipse 35" cx="0.993" cy="0.993" r="0.993" transform="translate(736.094 141.522)"/>
                  <circle id="Ellipse_36" data-name="Ellipse 36" cx="0.993" cy="0.993" r="0.993" transform="translate(751.051 141.522)"/>
                  <path id="Path_122" data-name="Path 122" d="M767.993,142.516a.993.993,0,1,1-.993-.994A.993.993,0,0,1,767.993,142.516Z"/>
                  <circle id="Ellipse_37" data-name="Ellipse 37" cx="0.993" cy="0.993" r="0.993" transform="translate(780.963 141.522)"/>
                </g>
              </g>
            </g>
          </g>
          <g id="Group_80" data-name="Group 80" opacity="0.51">
            <g id="Group_79" data-name="Group 79">
              <g id="Group_72" data-name="Group 72">
                <g id="Group_70" data-name="Group 70">
                  <path id="Path_123" data-name="Path 123" d="M572.243,366.153a.993.993,0,1,1-.993-.993A.992.992,0,0,1,572.243,366.153Z"/>
                  <circle id="Ellipse_38" data-name="Ellipse 38" cx="0.993" cy="0.993" r="0.993" transform="translate(585.213 365.16)"/>
                  <circle id="Ellipse_39" data-name="Ellipse 39" cx="0.993" cy="0.993" r="0.993" transform="translate(600.169 365.16)"/>
                  <circle id="Ellipse_40" data-name="Ellipse 40" cx="0.993" cy="0.993" r="0.993" transform="translate(615.126 365.16)"/>
                  <path id="Path_124" data-name="Path 124" d="M632.068,366.153a.993.993,0,1,1-.993-.993A.992.992,0,0,1,632.068,366.153Z"/>
                </g>
                <g id="Group_71" data-name="Group 71">
                  <path id="Path_125" data-name="Path 125" d="M579.721,377.546a.993.993,0,1,1-.993-.994A.993.993,0,0,1,579.721,377.546Z"/>
                  <circle id="Ellipse_41" data-name="Ellipse 41" cx="0.993" cy="0.993" r="0.993" transform="translate(592.691 376.552)"/>
                  <circle id="Ellipse_42" data-name="Ellipse 42" cx="0.993" cy="0.993" r="0.993" transform="translate(607.648 376.552)"/>
                  <path id="Path_126" data-name="Path 126" d="M624.59,377.546a.993.993,0,1,1-.993-.994A.993.993,0,0,1,624.59,377.546Z"/>
                </g>
              </g>
              <g id="Group_75" data-name="Group 75">
                <g id="Group_73" data-name="Group 73">
                  <path id="Path_127" data-name="Path 127" d="M572.243,389a.993.993,0,1,1-.993-.994A.993.993,0,0,1,572.243,389Z"/>
                  <circle id="Ellipse_43" data-name="Ellipse 43" cx="0.993" cy="0.993" r="0.993" transform="translate(585.213 388.003)"/>
                  <circle id="Ellipse_44" data-name="Ellipse 44" cx="0.993" cy="0.993" r="0.993" transform="translate(600.169 388.003)"/>
                  <circle id="Ellipse_45" data-name="Ellipse 45" cx="0.993" cy="0.993" r="0.993" transform="translate(615.126 388.003)"/>
                  <path id="Path_128" data-name="Path 128" d="M632.068,389a.993.993,0,1,1-.993-.994A.993.993,0,0,1,632.068,389Z"/>
                </g>
                <g id="Group_74" data-name="Group 74">
                  <path id="Path_129" data-name="Path 129" d="M579.721,400.389a.993.993,0,1,1-.993-.993A.992.992,0,0,1,579.721,400.389Z"/>
                  <circle id="Ellipse_46" data-name="Ellipse 46" cx="0.993" cy="0.993" r="0.993" transform="translate(592.691 399.396)"/>
                  <circle id="Ellipse_47" data-name="Ellipse 47" cx="0.993" cy="0.993" r="0.993" transform="translate(607.648 399.396)"/>
                  <path id="Path_130" data-name="Path 130" d="M624.59,400.389a.993.993,0,1,1-.993-.993A.992.992,0,0,1,624.59,400.389Z"/>
                </g>
              </g>
              <g id="Group_78" data-name="Group 78">
                <g id="Group_76" data-name="Group 76">
                  <path id="Path_131" data-name="Path 131" d="M572.243,411.84a.993.993,0,1,1-.993-.993A.993.993,0,0,1,572.243,411.84Z"/>
                  <circle id="Ellipse_48" data-name="Ellipse 48" cx="0.993" cy="0.993" r="0.993" transform="translate(585.213 410.847)"/>
                  <circle id="Ellipse_49" data-name="Ellipse 49" cx="0.993" cy="0.993" r="0.993" transform="translate(600.169 410.847)"/>
                  <circle id="Ellipse_50" data-name="Ellipse 50" cx="0.993" cy="0.993" r="0.993" transform="translate(615.126 410.847)"/>
                  <path id="Path_132" data-name="Path 132" d="M632.068,411.84a.993.993,0,1,1-.993-.993A.993.993,0,0,1,632.068,411.84Z"/>
                </g>
                <g id="Group_77" data-name="Group 77">
                  <path id="Path_133" data-name="Path 133" d="M579.721,423.232a.993.993,0,1,1-.993-.993A.993.993,0,0,1,579.721,423.232Z"/>
                  <circle id="Ellipse_51" data-name="Ellipse 51" cx="0.993" cy="0.993" r="0.993" transform="translate(592.691 422.239)"/>
                  <circle id="Ellipse_52" data-name="Ellipse 52" cx="0.993" cy="0.993" r="0.993" transform="translate(607.648 422.239)"/>
                  <path id="Path_134" data-name="Path 134" d="M624.59,423.232a.993.993,0,1,1-.993-.993A.993.993,0,0,1,624.59,423.232Z"/>
                </g>
              </g>
            </g>
          </g>
          <g id="Group_91" data-name="Group 91" opacity="0.51">
            <g id="Group_90" data-name="Group 90">
              <g id="Group_83" data-name="Group 83">
                <g id="Group_81" data-name="Group 81">
                  <circle id="Ellipse_53" data-name="Ellipse 53" cx="0.993" cy="0.993" r="0.993" transform="translate(240.029 474.709)"/>
                  <path id="Path_135" data-name="Path 135" d="M256.971,475.7a.993.993,0,1,1-.993-.993A.992.992,0,0,1,256.971,475.7Z"/>
                  <circle id="Ellipse_54" data-name="Ellipse 54" cx="0.993" cy="0.993" r="0.993" transform="translate(269.941 474.709)"/>
                  <circle id="Ellipse_55" data-name="Ellipse 55" cx="0.993" cy="0.993" r="0.993" transform="translate(284.898 474.709)"/>
                  <circle id="Ellipse_56" data-name="Ellipse 56" cx="0.993" cy="0.993" r="0.993" transform="translate(299.854 474.709)"/>
                </g>
                <g id="Group_82" data-name="Group 82">
                  <circle id="Ellipse_57" data-name="Ellipse 57" cx="0.993" cy="0.993" r="0.993" transform="translate(247.507 486.101)"/>
                  <path id="Path_136" data-name="Path 136" d="M264.45,487.094a.993.993,0,1,1-.994-.993A.994.994,0,0,1,264.45,487.094Z"/>
                  <circle id="Ellipse_58" data-name="Ellipse 58" cx="0.993" cy="0.993" r="0.993" transform="translate(277.419 486.101)"/>
                  <circle id="Ellipse_59" data-name="Ellipse 59" cx="0.993" cy="0.993" r="0.993" transform="translate(292.376 486.101)"/>
                </g>
              </g>
              <g id="Group_86" data-name="Group 86">
                <g id="Group_84" data-name="Group 84">
                  <circle id="Ellipse_60" data-name="Ellipse 60" cx="0.993" cy="0.993" r="0.993" transform="translate(240.029 497.552)"/>
                  <path id="Path_137" data-name="Path 137" d="M256.971,498.545a.993.993,0,1,1-.993-.993A.993.993,0,0,1,256.971,498.545Z"/>
                  <circle id="Ellipse_61" data-name="Ellipse 61" cx="0.993" cy="0.993" r="0.993" transform="translate(269.941 497.552)"/>
                  <circle id="Ellipse_62" data-name="Ellipse 62" cx="0.993" cy="0.993" r="0.993" transform="translate(284.898 497.552)"/>
                  <circle id="Ellipse_63" data-name="Ellipse 63" cx="0.993" cy="0.993" r="0.993" transform="translate(299.854 497.552)"/>
                </g>
                <g id="Group_85" data-name="Group 85">
                  <circle id="Ellipse_64" data-name="Ellipse 64" cx="0.993" cy="0.993" r="0.993" transform="translate(247.507 508.944)"/>
                  <path id="Path_138" data-name="Path 138" d="M264.45,509.938a.993.993,0,1,1-.994-.994A.994.994,0,0,1,264.45,509.938Z"/>
                  <circle id="Ellipse_65" data-name="Ellipse 65" cx="0.993" cy="0.993" r="0.993" transform="translate(277.419 508.944)"/>
                  <circle id="Ellipse_66" data-name="Ellipse 66" cx="0.993" cy="0.993" r="0.993" transform="translate(292.376 508.944)"/>
                </g>
              </g>
              <g id="Group_89" data-name="Group 89">
                <g id="Group_87" data-name="Group 87">
                  <circle id="Ellipse_67" data-name="Ellipse 67" cx="0.993" cy="0.993" r="0.993" transform="translate(240.029 520.395)"/>
                  <path id="Path_139" data-name="Path 139" d="M256.971,521.389a.993.993,0,1,1-.993-.994A.993.993,0,0,1,256.971,521.389Z"/>
                  <circle id="Ellipse_68" data-name="Ellipse 68" cx="0.993" cy="0.993" r="0.993" transform="translate(269.941 520.395)"/>
                  <circle id="Ellipse_69" data-name="Ellipse 69" cx="0.993" cy="0.993" r="0.993" transform="translate(284.898 520.395)"/>
                  <circle id="Ellipse_70" data-name="Ellipse 70" cx="0.993" cy="0.993" r="0.993" transform="translate(299.854 520.395)"/>
                </g>
                <g id="Group_88" data-name="Group 88">
                  <circle id="Ellipse_71" data-name="Ellipse 71" cx="0.993" cy="0.993" r="0.993" transform="translate(247.507 531.788)"/>
                  <path id="Path_140" data-name="Path 140" d="M264.45,532.781a.993.993,0,1,1-.994-.993A.994.994,0,0,1,264.45,532.781Z"/>
                  <circle id="Ellipse_72" data-name="Ellipse 72" cx="0.993" cy="0.993" r="0.993" transform="translate(277.419 531.788)"/>
                  <circle id="Ellipse_73" data-name="Ellipse 73" cx="0.993" cy="0.993" r="0.993" transform="translate(292.376 531.788)"/>
                </g>
              </g>
            </g>
          </g>
          <path id="Path_141" data-name="Path 141" d="M209.11,88.975H156.189V36.054H209.11Zm-44.779-8.142h36.637V44.2H164.331Z" fill="none" stroke="#000" stroke-miterlimit="10" stroke-width="0.25"/>
          <path id="Path_142" data-name="Path 142" d="M604.2,524.013H551.275V471.092H604.2Zm-44.78-8.142h36.638V479.233H559.416Z" fill="none" stroke="#000" stroke-miterlimit="10" stroke-width="0.25"/>
          <path id="Path_143" data-name="Path 143" d="M776.461,362.548H723.539V309.627h52.922Zm-44.78-8.141h36.638V317.769H731.681Z" fill="none" stroke="#000" stroke-miterlimit="10" stroke-width="0.25"/>
          <path id="Path_144" data-name="Path 144" d="M580.386,20.815H527.465V-32.106h52.921Zm-44.779-8.142h36.638V-23.964H535.607Z" fill="none" stroke="#000" stroke-miterlimit="10" stroke-width="0.25"/>
          <path id="Path_145" data-name="Path 145" d="M137.981,528.254H85.06V475.333h52.921ZM93.2,520.112h36.637V483.475H93.2Z" fill="none" stroke="#000" stroke-miterlimit="10" stroke-width="0.25"/>
          <path id="Path_146" data-name="Path 146" d="M253.644,115.742c7.511-3.242,10.675,4.087,18.186.844s4.348-10.571,11.859-13.813,10.675,4.086,18.186.844,4.349-10.572,11.862-13.815,10.676,4.086,18.188.843" fill="none" stroke="#000" stroke-miterlimit="10" stroke-width="0.166"/>
          <path id="Path_147" data-name="Path 147" d="M-31.685,55.024c7.512-3.242,10.675,4.087,18.186.844S-9.151,45.3-1.64,42.055s10.675,4.086,18.186.844S20.9,32.327,28.408,29.084s10.676,4.086,18.188.843" fill="none" stroke="#000" stroke-miterlimit="10" stroke-width="0.166"/>
          <path id="Path_148" data-name="Path 148" d="M581.8,104.181c7.511-3.242,10.674,4.086,18.186.844s4.347-10.571,11.858-13.814,10.675,4.087,18.187.844,4.349-10.571,11.861-13.814,10.676,4.085,18.188.842" fill="none" stroke="#000" stroke-miterlimit="10" stroke-width="0.166"/>
          <path id="Path_149" data-name="Path 149" d="M544.449,307.456c7.511-3.243,10.674,4.086,18.186.844s4.347-10.571,11.858-13.813,10.675,4.086,18.187.843,4.349-10.571,11.861-13.814,10.676,4.085,18.189.842" fill="none" stroke="#000" stroke-miterlimit="10" stroke-width="0.166"/>
          <path id="Path_150" data-name="Path 150" d="M724.129,475.686c7.511-3.243,10.675,4.086,18.186.844s4.347-10.571,11.859-13.814,10.675,4.086,18.186.844,4.349-10.572,11.861-13.814,10.676,4.085,18.189.842" fill="none" stroke="#000" stroke-miterlimit="10" stroke-width="0.166"/>
          <path id="Path_151" data-name="Path 151" d="M435.246,7.745c7.512-3.242,10.675,4.087,18.186.844S457.78-1.982,465.291-5.224s10.675,4.086,18.186.844,4.349-10.572,11.862-13.815,10.676,4.086,18.188.843" fill="none" stroke="#000" stroke-miterlimit="10" stroke-width="0.166"/>
          <path id="Path_152" data-name="Path 152" d="M335.86,465.358c7.511-3.243,10.674,4.086,18.185.844s4.348-10.571,11.859-13.814,10.675,4.086,18.186.844,4.349-10.572,11.862-13.815,10.676,4.086,18.188.843" fill="none" stroke="#000" stroke-miterlimit="10" stroke-width="0.166"/>
          <path id="Path_153" data-name="Path 153" d="M-53.856,510.194c7.511-3.242,10.675,4.087,18.186.844s4.348-10.571,11.859-13.813,10.675,4.086,18.186.844S-1.276,487.5,6.236,484.254s10.676,4.086,18.189.843" fill="none" stroke="#000" stroke-miterlimit="10" stroke-width="0.166"/>
          <path id="Path_154" data-name="Path 154" d="M120.841,377.211c7.511-3.242,10.674,4.086,18.186.844s4.347-10.571,11.858-13.813,10.675,4.086,18.187.843,4.349-10.571,11.861-13.814,10.676,4.086,18.188.843" fill="none" stroke="#000" stroke-miterlimit="10" stroke-width="0.166"/>
          <g id="Group_94" data-name="Group 94">
            <g id="Group_92" data-name="Group 92">
              <path id="Path_155" data-name="Path 155" d="M158.493,148.724l4.772,2.755v-5.51Z" fill="#005cac"/>
              <path id="Path_156" data-name="Path 156" d="M176.921,148.724l-4.772-2.755v5.51Z" fill="#005cac"/>
            </g>
            <g id="Group_93" data-name="Group 93">
              <path id="Path_157" data-name="Path 157" d="M167.707,157.938l2.755-4.772h-5.51Z" fill="#005cac"/>
              <path id="Path_158" data-name="Path 158" d="M167.707,139.51l-2.755,4.772h5.51Z" fill="#005cac"/>
            </g>
          </g>
          <g id="Group_97" data-name="Group 97">
            <g id="Group_95" data-name="Group 95">
              <path id="Path_159" data-name="Path 159" d="M465.173,419.946l4.772,2.755v-5.51Z" fill="#005cac"/>
              <path id="Path_160" data-name="Path 160" d="M483.6,419.946l-4.772-2.755v5.51Z" fill="#005cac"/>
            </g>
            <g id="Group_96" data-name="Group 96">
              <path id="Path_161" data-name="Path 161" d="M474.387,429.16l2.755-4.772h-5.51Z" fill="#005cac"/>
              <path id="Path_162" data-name="Path 162" d="M474.387,410.732l-2.755,4.772h5.51Z" fill="#005cac"/>
            </g>
          </g>
          <g id="Group_100" data-name="Group 100">
            <g id="Group_98" data-name="Group 98">
              <path id="Path_163" data-name="Path 163" d="M697.371,42.476l4.772,2.755v-5.51Z" fill="#005cac"/>
              <path id="Path_164" data-name="Path 164" d="M715.8,42.476l-4.772-2.755v5.51Z" fill="#005cac"/>
            </g>
            <g id="Group_99" data-name="Group 99">
              <path id="Path_165" data-name="Path 165" d="M706.584,51.69l2.755-4.772h-5.51Z" fill="#005cac"/>
              <path id="Path_166" data-name="Path 166" d="M706.584,33.262l-2.755,4.772h5.51Z" fill="#005cac"/>
            </g>
          </g>
          <g id="Group_108" data-name="Group 108">
            <g id="Group_107" data-name="Group 107">
              <g id="Group_103" data-name="Group 103">
                <g id="Group_101" data-name="Group 101">
                  <path id="Path_167" data-name="Path 167" d="M-4.646,337.279l4.772,2.755v-5.51Z"/>
                </g>
                <g id="Group_102" data-name="Group 102">
                  <path id="Path_168" data-name="Path 168" d="M13.782,337.279,9.01,334.525v5.51Z"/>
                </g>
              </g>
              <g id="Group_106" data-name="Group 106">
                <g id="Group_104" data-name="Group 104">
                  <path id="Path_169" data-name="Path 169" d="M4.568,346.493l2.755-4.772H1.813Z"/>
                </g>
                <g id="Group_105" data-name="Group 105">
                  <path id="Path_170" data-name="Path 170" d="M4.568,328.066l-2.755,4.772h5.51Z"/>
                </g>
              </g>
            </g>
          </g>
          <g id="Group_116" data-name="Group 116">
            <g id="Group_115" data-name="Group 115">
              <g id="Group_111" data-name="Group 111">
                <g id="Group_109" data-name="Group 109">
                  <path id="Path_171" data-name="Path 171" d="M675.391,497.1l4.772,2.755v-5.51Z"/>
                </g>
                <g id="Group_110" data-name="Group 110">
                  <path id="Path_172" data-name="Path 172" d="M693.819,497.1l-4.772-2.755v5.51Z"/>
                </g>
              </g>
              <g id="Group_114" data-name="Group 114">
                <g id="Group_112" data-name="Group 112">
                  <path id="Path_173" data-name="Path 173" d="M684.605,506.314l2.755-4.772h-5.51Z"/>
                </g>
                <g id="Group_113" data-name="Group 113">
                  <path id="Path_174" data-name="Path 174" d="M684.605,487.886l-2.755,4.772h5.51Z"/>
                </g>
              </g>
            </g>
          </g>
          <g id="Group_124" data-name="Group 124">
            <g id="Group_123" data-name="Group 123">
              <g id="Group_119" data-name="Group 119">
                <g id="Group_117" data-name="Group 117">
                  <path id="Path_175" data-name="Path 175" d="M740.786,18.651l4.772,2.755V15.9Z"/>
                </g>
                <g id="Group_118" data-name="Group 118">
                  <path id="Path_176" data-name="Path 176" d="M759.214,18.651,754.442,15.9v5.51Z"/>
                </g>
              </g>
              <g id="Group_122" data-name="Group 122">
                <g id="Group_120" data-name="Group 120">
                  <path id="Path_177" data-name="Path 177" d="M750,27.865l2.755-4.772h-5.51Z"/>
                </g>
                <g id="Group_121" data-name="Group 121">
                  <path id="Path_178" data-name="Path 178" d="M750,9.437l-2.755,4.772h5.51Z"/>
                </g>
              </g>
            </g>
          </g>
          <g id="Group_132" data-name="Group 132">
            <g id="Group_131" data-name="Group 131">
              <g id="Group_127" data-name="Group 127">
                <g id="Group_125" data-name="Group 125">
                  <path id="Path_179" data-name="Path 179" d="M257.771,6.682l4.772,2.755V3.927Z"/>
                </g>
                <g id="Group_126" data-name="Group 126">
                  <path id="Path_180" data-name="Path 180" d="M276.2,6.682l-4.772-2.755v5.51Z"/>
                </g>
              </g>
              <g id="Group_130" data-name="Group 130">
                <g id="Group_128" data-name="Group 128">
                  <path id="Path_181" data-name="Path 181" d="M266.985,15.9l2.755-4.772h-5.51Z"/>
                </g>
                <g id="Group_129" data-name="Group 129">
                  <path id="Path_182" data-name="Path 182" d="M266.985-2.532,264.23,2.24h5.51Z"/>
                </g>
              </g>
            </g>
          </g>
        </g>
      </g>
    </g>
  </g>
</svg>
